<svg width="90" height="88" viewBox="0 0 90 88" fill="none" xmlns="http://www.w3.org/2000/svg">
<path fill-rule="evenodd" clip-rule="evenodd" d="M12.0271 14.5781C12.0271 13.6263 12.7993 12.854 13.7513 12.854H17.7935V8.81075C17.7935 7.85875 18.5655 7.08761 19.5176 7.08761H21.9165C22.8694 7.08761 23.6416 7.85875 23.6416 8.81075V12.854H27.6836C28.6356 12.854 29.4077 13.6261 29.4077 14.5781V16.9772C29.4077 17.9301 28.6356 18.7014 27.6836 18.7014H23.6416V22.7443C23.6416 23.6963 22.8696 24.4686 21.9165 24.4686H19.5176C18.5654 24.4686 17.7935 23.6963 17.7935 22.7443V18.7014H13.7513C12.7993 18.7014 12.0271 17.9301 12.0271 16.9772V14.5781ZM26.2653 32.6803L29.213 20.8119C29.3465 20.164 29.9397 19.7326 30.5933 19.7326C31.2471 19.7326 31.817 20.1778 31.9747 20.8119L37.0464 41.231L38.9022 33.7595C39.06 33.1254 39.5527 32.6847 40.2063 32.6823L48.2729 32.6803L51.2206 20.8119C51.378 20.1778 51.948 19.7326 52.6016 19.7326C53.2554 19.7326 53.8253 20.1778 53.9831 20.8119L59.0544 41.231L60.9096 33.7595C61.0765 33.1281 61.6098 32.6914 62.2907 32.6803H78.9538C80.7214 29.1858 81.701 25.6154 81.701 21.9101C81.701 12.2485 75.1689 0 62.5802 0C49.9924 0 44.8344 10.275 44.8344 10.275C44.8344 10.275 39.6774 0 27.0886 0C14.4999 0 7.96798 12.2485 7.96798 21.9101C7.96798 25.6156 8.94764 29.1858 10.715 32.6803H26.2656H26.2653Z" fill="#008DB9"/>
<path fill-rule="evenodd" clip-rule="evenodd" d="M63.4037 35.5263L60.4354 47.4775C60.2781 48.1116 59.708 48.5568 59.054 48.5568C58.4004 48.5568 57.8305 48.1116 57.673 47.4775L52.6013 27.0591L50.7668 34.4462C50.6092 35.0803 50.0391 35.5263 49.3853 35.5263H41.3954L38.4273 47.4775C38.2697 48.1116 37.6997 48.5568 37.0463 48.5568C36.3925 48.5568 35.8224 48.1116 35.665 47.4775L30.5933 27.0591L28.7588 34.4462C28.6014 35.0803 28.0313 35.5263 27.3776 35.5263H12.3397C18.2176 44.8245 29.4384 53.6829 42.3736 63.2204C43.8356 64.2982 45.8324 64.2982 47.2947 63.2204C60.2298 53.6829 71.4506 44.8245 77.3282 35.5263H63.4037Z" fill="#C62E65"/>
<path d="M9.11438 80.0879C8.73876 79.6128 8.29133 79.2372 7.77208 78.961C7.26389 78.6848 6.75569 78.5467 6.2475 78.5467C5.80559 78.5467 5.39682 78.6351 5.0212 78.8119C4.64557 78.9776 4.31966 79.2096 4.04347 79.5079C3.76728 79.8062 3.54632 80.1597 3.38061 80.5684C3.22594 80.9772 3.1486 81.4191 3.1486 81.8942C3.1486 82.3692 3.22594 82.8167 3.38061 83.2365C3.54632 83.6452 3.76728 84.0043 4.04347 84.3136C4.31966 84.6119 4.64557 84.8494 5.0212 85.0262C5.39682 85.1919 5.80559 85.2748 6.2475 85.2748C6.7336 85.2748 7.23074 85.1533 7.73894 84.9102C8.25818 84.6561 8.71666 84.3192 9.11438 83.8993L10.9207 85.8051C10.6114 86.1365 10.2633 86.4348 9.87668 86.6999C9.50105 86.9651 9.10334 87.1916 8.68352 87.3794C8.26371 87.5672 7.83285 87.7108 7.39094 87.8102C6.94903 87.9207 6.51264 87.976 6.08178 87.976C5.20901 87.976 4.40252 87.8213 3.66233 87.5119C2.92213 87.2026 2.28136 86.7828 1.74002 86.2525C1.19868 85.7112 0.773342 85.0704 0.464005 84.3302C0.154668 83.59 0 82.789 0 81.9273C0 81.0766 0.154668 80.2867 0.464005 79.5576C0.784389 78.8284 1.22078 78.1987 1.77316 77.6684C2.32555 77.1381 2.97737 76.7238 3.72861 76.4255C4.4909 76.1162 5.31396 75.9615 6.19778 75.9615C6.62864 75.9615 7.0595 76.0113 7.49037 76.1107C7.93227 76.1991 8.35761 76.3316 8.76638 76.5084C9.17515 76.6741 9.56182 76.884 9.92639 77.1381C10.291 77.3812 10.6169 77.6574 10.9041 77.9667L9.11438 80.0879Z" fill="#008DB9"/>
<path d="M17.1607 86.7496C16.5641 87.5119 15.6637 87.8931 14.4595 87.8931C13.9844 87.8931 13.5536 87.8268 13.1669 87.6942C12.7913 87.5506 12.4709 87.3573 12.2058 87.1142C11.9406 86.8601 11.7362 86.5618 11.5926 86.2194C11.46 85.8769 11.3938 85.5013 11.3938 85.0925C11.3938 84.2308 11.6865 83.5679 12.2721 83.1039C12.8576 82.6399 13.7138 82.3968 14.8406 82.3747H17.1441V82.2753C17.1441 81.8555 17.006 81.5296 16.7298 81.2976C16.4536 81.0545 16.0338 80.933 15.4704 80.933C15.0947 80.933 14.6749 80.9938 14.2109 81.1153C13.7469 81.2368 13.2663 81.4136 12.7692 81.6456L11.9572 79.657C12.6753 79.3366 13.3713 79.0936 14.0452 78.9278C14.7191 78.7621 15.4262 78.6793 16.1664 78.6793C17.4148 78.6793 18.3814 78.961 19.0664 79.5244C19.7514 80.0879 20.0938 80.8888 20.0938 81.9273L20.1104 87.7605H17.1607V86.7496ZM15.3875 85.8879C15.8073 85.8879 16.1829 85.783 16.5144 85.5731C16.8458 85.3632 17.0612 85.0814 17.1607 84.7279V83.9491H15.4207C14.6142 83.9491 14.2109 84.2584 14.2109 84.8771C14.2109 85.1864 14.3159 85.435 14.5258 85.6228C14.7357 85.7995 15.0229 85.8879 15.3875 85.8879Z" fill="#008DB9"/>
<path d="M22.0586 78.7953H25.0581V80.2867C25.3674 79.7675 25.7651 79.3698 26.2512 79.0936C26.7373 78.8174 27.3008 78.6793 27.9415 78.6793V81.3804C27.0909 81.2921 26.4114 81.4246 25.9032 81.7782C25.395 82.1206 25.1133 82.6233 25.0581 83.2862V87.7605H22.0586V78.7953Z" fill="#008DB9"/>
<path d="M31.3205 84.0651C31.4641 84.5732 31.7071 84.9654 32.0496 85.2416C32.4031 85.5068 32.8285 85.6394 33.3256 85.6394C33.7123 85.6394 34.0824 85.562 34.4359 85.4073C34.8005 85.2527 35.1319 85.0262 35.4302 84.7279L36.9879 86.2691C36.5239 86.7883 35.9605 87.186 35.2976 87.4622C34.6458 87.7274 33.9056 87.86 33.0771 87.86C32.3369 87.86 31.674 87.755 31.0885 87.5451C30.5029 87.3241 30.0003 87.0148 29.5804 86.6171C29.1717 86.2194 28.8568 85.7388 28.6359 85.1753C28.4149 84.6119 28.3044 83.9877 28.3044 83.3028C28.3044 82.6068 28.4149 81.977 28.6359 81.4136C28.8679 80.8502 29.1882 80.3696 29.597 79.9719C30.0058 79.5631 30.4974 79.2482 31.0719 79.0273C31.6574 78.8063 32.2982 78.6959 32.9942 78.6959C33.7786 78.6959 34.4635 78.8229 35.0491 79.077C35.6456 79.3311 36.1373 79.6901 36.5239 80.1542C36.9106 80.6182 37.1868 81.1816 37.3525 81.8445C37.5293 82.5073 37.5901 83.2475 37.5348 84.0651H31.3205ZM33.0108 80.7673C32.5468 80.7673 32.1601 80.9275 31.8508 81.2479C31.5414 81.5572 31.3426 81.9715 31.2542 82.4908H34.6348C34.6348 81.9715 34.4856 81.5572 34.1874 81.2479C33.9001 80.9275 33.5079 80.7673 33.0108 80.7673Z" fill="#008DB9"/>
<path d="M36.4546 76.1604H46.4307V78.6461H42.9672V87.7605H39.8849V78.6461H36.4546V76.1604Z" fill="#008DB9"/>
<path d="M47.4501 78.7953H50.4495V80.2867C50.7589 79.7675 51.1566 79.3698 51.6427 79.0936C52.1288 78.8174 52.6922 78.6793 53.333 78.6793V81.3804C52.4823 81.2921 51.8029 81.4246 51.2947 81.7782C50.7865 82.1206 50.5048 82.6233 50.4495 83.2862V87.7605H47.4501V78.7953Z" fill="#008DB9"/>
<path d="M59.5445 86.7496C58.9479 87.5119 58.0475 87.8931 56.8433 87.8931C56.3683 87.8931 55.9374 87.8268 55.5507 87.6942C55.1751 87.5506 54.8547 87.3573 54.5896 87.1142C54.3244 86.8601 54.1201 86.5618 53.9764 86.2194C53.8439 85.8769 53.7776 85.5013 53.7776 85.0925C53.7776 84.2308 54.0703 83.5679 54.6559 83.1039C55.2414 82.6399 56.0976 82.3968 57.2245 82.3747H59.5279V82.2753C59.5279 81.8555 59.3898 81.5296 59.1136 81.2976C58.8374 81.0545 58.4176 80.933 57.8542 80.933C57.4786 80.933 57.0588 80.9938 56.5947 81.1153C56.1307 81.2368 55.6502 81.4136 55.153 81.6456L54.341 79.657C55.0591 79.3366 55.7551 79.0936 56.429 78.9278C57.1029 78.7621 57.81 78.6793 58.5502 78.6793C59.7986 78.6793 60.7653 78.961 61.4502 79.5244C62.1352 80.0879 62.4777 80.8888 62.4777 81.9273L62.4942 87.7605H59.5445V86.7496ZM57.7713 85.8879C58.1911 85.8879 58.5668 85.783 58.8982 85.5731C59.2296 85.3632 59.4451 85.0814 59.5445 84.7279V83.9491H57.8045C56.998 83.9491 56.5947 84.2584 56.5947 84.8771C56.5947 85.1864 56.6997 85.435 56.9096 85.6228C57.1195 85.7995 57.4068 85.8879 57.7713 85.8879Z" fill="#008DB9"/>
<path d="M70.2575 82.0599C70.0697 81.7726 69.8322 81.5462 69.5449 81.3804C69.2577 81.2147 68.9318 81.1319 68.5672 81.1319C68.0369 81.1319 67.6061 81.3307 67.2746 81.7285C66.9542 82.1262 66.7941 82.6509 66.7941 83.3028C66.7941 83.9656 66.9542 84.4959 67.2746 84.8936C67.6061 85.2803 68.0369 85.4736 68.5672 85.4736C69.3516 85.4736 69.9206 85.1367 70.2741 84.4628L72.4947 85.7222C72.1412 86.4072 71.6109 86.9375 70.9038 87.3131C70.2078 87.6777 69.3737 87.86 68.4015 87.86C67.7055 87.86 67.0758 87.755 66.5123 87.5451C65.9489 87.3241 65.4628 87.0148 65.054 86.6171C64.6453 86.2194 64.3304 85.7388 64.1095 85.1753C63.8885 84.6119 63.778 83.9877 63.778 83.3028C63.778 82.6068 63.8885 81.977 64.1095 81.4136C64.3304 80.8502 64.6453 80.3696 65.054 79.9719C65.4628 79.5631 65.9544 79.2482 66.5289 79.0273C67.1034 78.8063 67.7386 78.6959 68.4346 78.6959C69.3406 78.6959 70.1415 78.8837 70.8375 79.2593C71.5335 79.6239 72.0749 80.1431 72.4615 80.817L70.2575 82.0599Z" fill="#008DB9"/>
<path d="M73.7983 75.4644H76.7977V81.8279L79.6149 78.7953H83.0121L79.7309 82.2587L83.0949 87.7605H79.5321L77.676 84.4131L76.7977 85.3411V87.7605H73.7983V75.4644Z" fill="#008DB9"/>
<path d="M82.5925 81.397H85.3599V78.6296H87.2491V81.397H90V83.2862H87.2491V86.0536H85.3599V83.2862H82.5925V81.397Z" fill="#C62E65"/>
</svg>
