<svg width="140" height="140" viewBox="0 0 140 140" fill="none" xmlns="http://www.w3.org/2000/svg">
<path d="M139.551 69.7757C139.551 108.317 108.317 139.551 69.7757 139.551C31.2347 139.551 0 108.317 0 69.7757C0 31.2347 31.2347 0 69.7757 0C108.317 0 139.551 31.2347 139.551 69.7757Z" fill="#00BAC7"/>
<path d="M78.0286 35.4026C78.0286 39.9691 74.3256 43.672 69.7591 43.672C65.1926 43.672 61.4896 39.9691 61.4896 35.4026C61.4896 30.8361 65.1926 27.1331 69.7591 27.1331C74.3256 27.1331 78.0286 30.8361 78.0286 35.4026Z" fill="#6BC0C0"/>
<path d="M76.1854 35.4026C76.1854 38.9561 73.3126 41.8289 69.7591 41.8289C66.2055 41.8289 63.3328 38.9561 63.3328 35.4026C63.3328 31.849 66.2055 28.9763 69.7591 28.9763C73.3126 28.9763 76.1854 31.849 76.1854 35.4026Z" fill="#EB5957"/>
<path d="M74.6078 35.4026C74.6078 38.0927 72.4325 40.268 69.7424 40.268C67.0524 40.268 64.8771 38.0927 64.8771 35.4026C64.8771 32.7125 67.0524 30.5372 69.7424 30.5372C72.4325 30.5372 74.6078 32.7125 74.6078 35.4026Z" fill="#FEFEFE"/>
<path d="M69.759 40.2679C67.069 40.2679 64.8937 38.0926 64.8937 35.4026V35.386V35.3694V35.3528V35.3362V35.3196V35.3029V35.2863V35.2697V35.2531V35.2365V35.2199V35.2033C64.8937 35.1867 64.8937 35.1701 64.8937 35.1535C64.8937 35.1369 64.8937 35.1037 64.8937 35.0871C64.8937 35.0705 64.8937 35.0539 64.8937 35.0373C65.0431 33.3435 66.0394 31.9155 67.4675 31.1516C67.1686 32.0649 67.235 33.0944 67.5505 34.0575H67.1354V35.4524H68.248C68.4804 35.8011 68.7461 36.1166 69.0284 36.3989V38.8399H70.4233V37.3454C71.1373 37.6443 72.0174 37.8104 72.8642 37.8104C73.2628 37.8104 73.6613 37.7771 74.0266 37.6941C73.2296 39.2052 71.6687 40.2679 69.8421 40.3178C69.8255 40.3178 69.8089 40.3178 69.8089 40.3178H69.7922H69.7756H69.759H69.7424L69.759 40.2679Z" fill="#D2D3D5"/>
<path d="M72.3495 34.0078H70.4399V32.0151H69.0617V34.0078H67.152V35.4026H69.0617V38.7901H70.4399V35.4026H72.3495V34.0078Z" fill="#6BC0C0"/>
<path d="M72.2831 36.0336C72.034 36.0336 71.7683 36.017 71.4694 35.9672C71.1041 35.9007 70.7554 35.7679 70.4399 35.552V35.4192H72.3495V34.0243H70.4399V32.0317H69.0616C69.1447 31.8324 69.2443 31.6498 69.3937 31.4837C69.593 31.4505 69.8089 31.4339 70.0247 31.4339C72.0672 31.4339 73.7111 33.0944 73.7111 35.1369C73.7111 35.3528 73.6945 35.5686 73.6613 35.7679C73.2794 35.9506 72.831 36.0668 72.2831 36.0668V36.0336ZM69.045 33.6756C68.879 33.1276 68.8624 32.5631 69.045 32.0649V33.6756Z" fill="#FEFEFE"/>
<path d="M70.4399 35.5521C69.7923 35.1203 69.2775 34.4229 69.045 33.6923V32.0816C69.045 32.0649 69.0616 32.0483 69.0616 32.0317H70.4399V34.0244H72.3495V35.4192H70.4399V35.5521Z" fill="#A2D5D9"/>
<path d="M48.4711 67.0856H91.0306V51.0283H48.4711V67.0856Z" fill="#EEDBB2"/>
<path d="M18.2327 74.5414H48.471V63.1335H18.2327V74.5414Z" fill="#BCAF90"/>
<path d="M21.2714 70.9879V66.6871H24.1275V70.9879H21.2714ZM24.4264 66.355H20.9725V71.32H24.4264V66.355Z" fill="#FEFEFE"/>
<path d="M21.1054 71.1207V66.5708H24.2604V71.1207H21.1054ZM24.4264 66.3716H20.9725V71.3366H24.4264V66.3716Z" fill="#BDBFC1"/>
<path d="M21.2715 70.9879H24.1442V66.6871H21.2715V70.9879Z" fill="#22BAC2"/>
<path d="M23.9283 70.6558H22.849L22.8324 70.6226C22.5833 70.3237 22.5335 69.8753 22.5999 69.4934C22.6497 69.0949 22.8158 68.6797 23.1645 68.4639C23.3471 68.3476 23.563 68.2812 23.7789 68.248L23.9615 68.2314V70.6558H23.9283Z" fill="#82CDD8"/>
<path d="M22.1682 70.9879H21.2715V66.6871H24.1276V67.0026C23.9782 67.0026 23.8121 67.0358 23.6627 67.0524C23.2973 67.1188 22.9486 67.2517 22.6663 67.4675C22.135 67.8661 21.8859 68.5801 21.8029 69.2277C21.7198 69.8255 21.8029 70.4897 22.1516 71.0045L22.1682 70.9879Z" fill="#239EA5"/>
<path d="M26.6018 70.9879V66.6871H29.4579V70.9879H26.6018ZM29.7568 66.355H26.3029V71.32H29.7568V66.355Z" fill="#FEFEFE"/>
<path d="M26.4191 71.1207V66.5708H29.5741V71.1207H26.4191ZM29.7568 66.3716H26.3029V71.3366H29.7568V66.3716Z" fill="#BDBFC1"/>
<path d="M26.6018 70.9879H29.4579V66.6871H26.6018V70.9879Z" fill="#22BAC2"/>
<path d="M29.2421 70.6558H28.1627L28.1295 70.6226C27.8804 70.3237 27.8306 69.8753 27.897 69.4934C27.9634 69.0949 28.1129 68.6797 28.4616 68.4639C28.6443 68.3476 28.8601 68.2812 29.076 68.248L29.2587 68.2314V70.6558H29.2421Z" fill="#82CDD8"/>
<path d="M27.4985 70.9879H26.6018V66.6871H29.4579V67.0026C29.3085 67.0026 29.1424 67.0358 28.993 67.0524C28.6277 67.1188 28.2789 67.2517 27.9967 67.4675C27.4653 67.8661 27.2162 68.5801 27.1332 69.2277C27.0502 69.8255 27.1332 70.4897 27.4819 71.0045L27.4985 70.9879Z" fill="#239EA5"/>
<path d="M31.9155 70.9879V66.6871H34.7716V70.9879H31.9155ZM35.0705 66.355H31.6166V71.32H35.0705V66.355Z" fill="#FEFEFE"/>
<path d="M31.7494 71.1207V66.5708H34.9044V71.1207H31.7494ZM35.0871 66.3716H31.6332V71.3366H35.0871V66.3716Z" fill="#BDBFC1"/>
<path d="M31.9155 70.9879H34.7883V66.6871H31.9155V70.9879Z" fill="#22BAC2"/>
<path d="M34.5723 70.6558H33.493L33.4764 70.6226C33.2107 70.3237 33.1775 69.8753 33.2439 69.4934C33.3103 69.0949 33.4598 68.6797 33.8085 68.4639C33.9912 68.3476 34.207 68.2812 34.4229 68.248L34.589 68.2314V70.6558H34.5723Z" fill="#82CDD8"/>
<path d="M32.8122 70.9879H31.9155V66.6871H34.7716V67.0026C34.6222 67.0026 34.4561 67.0358 34.3067 67.0524C33.9414 67.1188 33.5927 67.2517 33.3104 67.4675C32.779 67.8661 32.5299 68.5801 32.4469 69.2277C32.3639 69.8255 32.4469 70.4897 32.7956 71.0045L32.8122 70.9879Z" fill="#239EA5"/>
<path d="M37.2458 70.9879V66.6871H40.1019V70.9879H37.2458ZM40.4008 66.355H36.9469V71.32H40.4008V66.355Z" fill="#FEFEFE"/>
<path d="M37.0631 71.1207V66.5708H40.2182V71.1207H37.0631ZM40.4008 66.3716H36.9469V71.3366H40.4008V66.3716Z" fill="#BDBFC1"/>
<path d="M37.2458 70.9879H40.102V66.6871H37.2458V70.9879Z" fill="#22BAC2"/>
<path d="M39.8861 70.6558H38.8067L38.7901 70.6226C38.5411 70.3237 38.4912 69.8753 38.5577 69.4934C38.6241 69.0949 38.7735 68.6797 39.1222 68.4639C39.3049 68.3476 39.5208 68.2812 39.7366 68.248L39.9027 68.2314V70.6558H39.8861Z" fill="#82CDD8"/>
<path d="M38.1259 70.9879H37.2292V66.6871H40.0854V67.0026C39.9359 67.0026 39.7699 67.0358 39.6204 67.0524C39.2551 67.1188 38.9064 67.2517 38.6241 67.4675C38.0927 67.8661 37.8436 68.5801 37.7606 69.2277C37.6776 69.8255 37.7606 70.4897 38.1093 71.0045L38.1259 70.9879Z" fill="#239EA5"/>
<path d="M42.5595 70.9879V66.6871H45.4156V70.9879H42.5595ZM45.7145 66.355H42.2772V71.32H45.7145V66.355Z" fill="#FEFEFE"/>
<path d="M42.3769 71.1207V66.5708H45.5319V71.1207H42.3769ZM45.6979 66.3716H42.2606V71.3366H45.6979V66.3716Z" fill="#BDBFC1"/>
<path d="M42.5596 70.9879H45.4157V66.6871H42.5596V70.9879Z" fill="#22BAC2"/>
<path d="M43.4563 70.9879H42.5596V66.6871H45.4157V67.0026C45.2662 67.0026 45.1002 67.0358 44.9507 67.0524C44.9009 67.069 44.8345 67.069 44.7847 67.0856H42.9083V70.7554H43.2902C43.3234 70.8384 43.3732 70.9214 43.4397 70.9879H43.4563Z" fill="#239EA5"/>
<path d="M16.7714 63.4324H48.4876V59.7626H16.7714V63.4324Z" fill="#9F947B"/>
<path d="M48.4876 63.4324H16.7714V61.6058H48.4876V63.4324Z" fill="#807864"/>
<path d="M90.2335 74.475H120.472V63.0671H90.2335V74.475Z" fill="#BCAF90"/>
<path d="M114.56 70.9215V66.6207H117.416V70.9215H114.56ZM114.261 71.2536H117.715V66.2886H114.261V71.2536Z" fill="#FEFEFE"/>
<path d="M114.427 71.0377V66.4878H117.582V71.0377H114.427ZM114.261 71.237H117.715V66.272H114.261V71.237Z" fill="#BDBFC1"/>
<path d="M114.56 70.9215H117.416V66.6207H114.56V70.9215Z" fill="#22BAC2"/>
<path d="M115.856 70.5728H114.776V68.1484L114.942 68.165C115.158 68.1982 115.374 68.248 115.557 68.3809C115.905 68.6133 116.055 69.0285 116.121 69.4104C116.188 69.7923 116.138 70.2407 115.889 70.5562L115.872 70.5894L115.856 70.5728Z" fill="#82CDD8"/>
<path d="M117.416 70.9215H116.52C116.868 70.4067 116.951 69.7591 116.868 69.1447C116.785 68.5137 116.536 67.783 116.005 67.3845C115.723 67.1686 115.357 67.0192 115.009 66.9694C114.859 66.9362 114.693 66.9196 114.544 66.9196V66.6207H117.4V70.9215H117.416Z" fill="#239EA5"/>
<path d="M109.23 70.9215V66.6207H112.086V70.9215H109.23ZM108.931 71.2536H112.385V66.2886H108.931V71.2536Z" fill="#FEFEFE"/>
<path d="M109.114 71.0377V66.4878H112.269V71.0377H109.114ZM108.948 71.237H112.402V66.272H108.948V71.237Z" fill="#BDBFC1"/>
<path d="M109.23 70.9215H112.103V66.6207H109.23V70.9215Z" fill="#22BAC2"/>
<path d="M110.542 70.5728H109.462V68.1484L109.629 68.165C109.844 68.1982 110.06 68.248 110.243 68.3809C110.592 68.6133 110.741 69.0285 110.808 69.4104C110.857 69.7923 110.824 70.2407 110.575 70.5562L110.558 70.5894L110.542 70.5728Z" fill="#82CDD8"/>
<path d="M112.103 70.9215H111.206C111.555 70.4067 111.638 69.7591 111.555 69.1447C111.472 68.5137 111.223 67.783 110.691 67.3845C110.409 67.1686 110.06 67.0192 109.695 66.9694C109.545 66.9362 109.396 66.9196 109.23 66.9196V66.6207H112.086V70.9215H112.103Z" fill="#239EA5"/>
<path d="M103.916 70.9215V66.6207H106.772V70.9215H103.916ZM103.617 71.2536H107.055V66.2886H103.617V71.2536Z" fill="#FEFEFE"/>
<path d="M103.8 71.0377V66.4878H106.955V71.0377H103.8ZM103.634 71.237H107.071V66.272H103.634V71.237Z" fill="#BDBFC1"/>
<path d="M103.916 70.9215H106.772V66.6207H103.916V70.9215Z" fill="#22BAC2"/>
<path d="M105.211 70.5728H104.132V68.1484L104.315 68.165C104.531 68.1982 104.747 68.248 104.929 68.3809C105.261 68.6133 105.427 69.0285 105.494 69.4104C105.544 69.7923 105.51 70.2407 105.261 70.5562L105.228 70.5894L105.211 70.5728Z" fill="#82CDD8"/>
<path d="M106.772 70.9215H105.876C106.224 70.4067 106.307 69.7591 106.224 69.1447C106.141 68.5137 105.892 67.783 105.361 67.3845C105.079 67.1686 104.713 67.0192 104.365 66.9694C104.215 66.9362 104.066 66.9196 103.9 66.9196V66.6207H106.756V70.9215H106.772Z" fill="#239EA5"/>
<path d="M90.2003 63.366H121.933V59.6962H90.2003V63.366Z" fill="#9F947B"/>
<path d="M121.933 63.366H90.2003V61.5228H121.933V63.366Z" fill="#807864"/>
<path d="M45.1167 108.433H94.4346V70.7554H45.1167V108.433Z" fill="#EEDBB2"/>
<path d="M48.9028 80.1872V74.1263H52.9379V80.1872H48.9028ZM53.3364 73.6613H48.4877V80.6522H53.3364V73.6613Z" fill="#FEFEFE"/>
<path d="M48.6537 80.3533V73.9436H53.104V80.3533H48.6537ZM53.3364 73.6613H48.4877V80.6522H53.3364V73.6613Z" fill="#BDBFC1"/>
<path d="M48.9027 80.1872H52.9378V74.1263H48.9027V80.1872Z" fill="#22BAC2"/>
<path d="M52.6223 79.7057H51.0946L51.0614 79.6725C50.6961 79.2407 50.6463 78.6097 50.7293 78.0783C50.8123 77.5304 51.0448 76.9326 51.5264 76.6171C51.7755 76.451 52.091 76.368 52.3899 76.3182L52.6389 76.3016V79.7057H52.6223Z" fill="#82CDD8"/>
<path d="M50.1647 80.1872H48.9193V74.1263H52.9544V74.558C52.7385 74.5746 52.5227 74.5912 52.3068 74.641C51.8086 74.7241 51.3105 74.9233 50.8953 75.2388C50.1481 75.8034 49.7994 76.8163 49.6832 77.713C49.5669 78.5599 49.6832 79.4898 50.1813 80.2038L50.1647 80.1872Z" fill="#239EA5"/>
<path d="M56.3918 80.1872V74.1263H60.4103V80.1872H56.3918ZM60.8254 73.6613H55.9767V80.6522H60.8254V73.6613Z" fill="#FEFEFE"/>
<path d="M56.1427 80.3533V73.9436H60.593V80.3533H56.1427ZM60.8254 73.6613H55.9767V80.6522H60.8254V73.6613Z" fill="#BDBFC1"/>
<path d="M56.3917 80.1872H60.4268V74.1263H56.3917V80.1872Z" fill="#22BAC2"/>
<path d="M57.6371 80.1872H56.3917V74.1263H60.4102V74.558C60.1944 74.5746 59.9785 74.5912 59.7626 74.641C59.2645 74.7241 58.7663 74.9233 58.3512 75.2388C57.6039 75.8034 57.2552 76.8163 57.139 77.713C57.0227 78.5599 57.139 79.4898 57.6371 80.2038V80.1872Z" fill="#239EA5"/>
<path d="M48.9028 88.7058V82.6448H52.9379V88.7058H48.9028ZM53.3364 82.1799H48.4877V89.1707H53.3364V82.1799Z" fill="#FEFEFE"/>
<path d="M48.6537 88.8884V82.4788H53.104V88.8884H48.6537ZM53.3364 82.1965H48.4877V89.1873H53.3364V82.1965Z" fill="#BDBFC1"/>
<path d="M48.9027 88.7058H52.9378V82.6614H48.9027V88.7058Z" fill="#22BAC2"/>
<path d="M52.6223 88.2242H51.0946L51.0614 88.191C50.6961 87.7593 50.6463 87.1283 50.7293 86.5969C50.8123 86.0489 51.0448 85.4511 51.5264 85.1356C51.7755 84.9696 52.091 84.8865 52.3899 84.8367L52.6389 84.8201V88.2242H52.6223Z" fill="#82CDD8"/>
<path d="M50.1647 88.7058H48.9193V82.6448H52.9544V83.0766C52.7385 83.0932 52.5227 83.1098 52.3068 83.1596C51.8086 83.2426 51.3105 83.4419 50.8953 83.7574C50.1481 84.322 49.7994 85.3349 49.6832 86.2316C49.5669 87.0785 49.6832 88.0084 50.1813 88.7224L50.1647 88.7058Z" fill="#239EA5"/>
<path d="M56.3918 88.7058V82.6448H60.4103V88.7058H56.3918ZM60.8254 82.1799H55.9767V89.1707H60.8254V82.1799Z" fill="#FEFEFE"/>
<path d="M56.1427 88.8884V82.4788H60.593V88.8884H56.1427ZM60.8254 82.1965H55.9767V89.1873H60.8254V82.1965Z" fill="#BDBFC1"/>
<path d="M56.3917 88.7058H60.4268V82.6614H56.3917V88.7058Z" fill="#22BAC2"/>
<path d="M60.1113 88.2242H58.5837L58.5504 88.191C58.1851 87.7593 58.1353 87.1283 58.2183 86.5969C58.3014 86.0489 58.5338 85.4511 59.0154 85.1356C59.2645 84.9696 59.58 84.8865 59.8789 84.8367L60.1279 84.8201V88.2242H60.1113Z" fill="#82CDD8"/>
<path d="M57.6371 88.7058H56.3917V82.6448H60.4102V83.0766C60.1944 83.0932 59.9785 83.1098 59.7626 83.1596C59.2645 83.2426 58.7663 83.4419 58.3512 83.7574C57.6039 84.322 57.2552 85.3349 57.139 86.2316C57.0227 87.0785 57.139 88.0084 57.6371 88.7224V88.7058Z" fill="#239EA5"/>
<path d="M63.8808 88.7058V82.6448H67.9159V88.7058H63.8808ZM68.3144 82.1799H63.4656V89.1707H68.3144V82.1799Z" fill="#FEFEFE"/>
<path d="M63.6317 88.8884V82.4788H68.0819V88.8884H63.6317ZM68.3144 82.1965H63.4656V89.1873H68.3144V82.1965Z" fill="#BDBFC1"/>
<path d="M63.8808 88.7058H67.9159V82.6614H63.8808V88.7058Z" fill="#22BAC2"/>
<path d="M67.6004 88.2242H66.0727L66.0395 88.191C65.6741 87.7593 65.6243 87.1283 65.7073 86.5969C65.7904 86.0489 66.0229 85.4511 66.5044 85.1356C66.7535 84.9696 67.069 84.8865 67.3679 84.8367L67.617 84.8201V88.2242H67.6004Z" fill="#82CDD8"/>
<path d="M65.1262 88.7058H63.8808V82.6448H67.9159V83.0766C67.7 83.0932 67.4842 83.1098 67.2683 83.1596C66.7701 83.2426 66.272 83.4419 65.8568 83.7574C65.1096 84.322 64.7609 85.3349 64.6446 86.2316C64.5284 87.0785 64.6446 88.0084 65.1428 88.7224L65.1262 88.7058Z" fill="#239EA5"/>
<path d="M71.3698 88.7058V82.6448H75.4049V88.7058H71.3698ZM75.8034 82.1799H70.9547V89.1707H75.8034V82.1799Z" fill="#FEFEFE"/>
<path d="M71.1207 88.8884V82.4788H75.5709V88.8884H71.1207ZM75.8034 82.1965H70.9547V89.1873H75.8034V82.1965Z" fill="#BDBFC1"/>
<path d="M71.3698 88.7058H75.4049V82.6614H71.3698V88.7058Z" fill="#22BAC2"/>
<path d="M75.0894 88.2242H73.5617L73.5285 88.191C73.1631 87.7593 73.1133 87.1283 73.1964 86.5969C73.2794 86.0489 73.5119 85.4511 73.9934 85.1356C74.2425 84.9696 74.558 84.8865 74.8569 84.8367L75.106 84.8201V88.2242H75.0894Z" fill="#82CDD8"/>
<path d="M72.6152 88.7058H71.3698V82.6448H75.4049V83.0766C75.189 83.0932 74.9732 83.1098 74.7573 83.1596C74.2591 83.2426 73.761 83.4419 73.3458 83.7574C72.5986 84.322 72.2499 85.3349 72.1337 86.2316C72.0174 87.0785 72.1337 88.0084 72.6318 88.7224L72.6152 88.7058Z" fill="#239EA5"/>
<path d="M78.8588 88.7058V82.6448H82.8939V88.7058H78.8588ZM83.2924 82.1799H78.4437V89.1707H83.2924V82.1799Z" fill="#FEFEFE"/>
<path d="M78.6097 88.8884V82.4788H83.0599V88.8884H78.6097ZM83.2924 82.1965H78.4437V89.1873H83.2924V82.1965Z" fill="#BDBFC1"/>
<path d="M78.8588 88.7058H82.8773V82.6614H78.8588V88.7058Z" fill="#22BAC2"/>
<path d="M82.5784 88.2242H81.0507L81.0175 88.191C80.6522 87.7593 80.6024 87.1283 80.6854 86.5969C80.7684 86.0489 81.0009 85.4511 81.4824 85.1356C81.7315 84.9696 82.047 84.8865 82.3459 84.8367L82.595 84.8201V88.2242H82.5784Z" fill="#82CDD8"/>
<path d="M80.1042 88.7058H78.8588V82.6448H82.8939V83.0766C82.6781 83.0932 82.4622 83.1098 82.2463 83.1596C81.7482 83.2426 81.25 83.4419 80.8349 83.7574C80.0876 84.322 79.7389 85.3349 79.6227 86.2316C79.5064 87.0785 79.6227 88.0084 80.1208 88.7224L80.1042 88.7058Z" fill="#239EA5"/>
<path d="M86.6135 88.7058V82.6448H90.6486V88.7058H86.6135ZM91.0471 82.1799H86.1984V89.1707H91.0471V82.1799Z" fill="#FEFEFE"/>
<path d="M86.3644 88.8884V82.4788H90.8146V88.8884H86.3644ZM91.0471 82.1965H86.1984V89.1873H91.0471V82.1965Z" fill="#BDBFC1"/>
<path d="M86.6135 88.7058H90.6486V82.6614H86.6135V88.7058Z" fill="#22BAC2"/>
<path d="M90.3331 88.2242H88.8054L88.7722 88.191C88.4069 87.7593 88.3571 87.1283 88.4401 86.5969C88.5231 86.0489 88.7556 85.4511 89.2371 85.1356C89.4862 84.9696 89.8017 84.8865 90.1006 84.8367L90.3497 84.8201V88.2242H90.3331Z" fill="#82CDD8"/>
<path d="M87.8589 88.7058H86.6135V82.6448H90.6486V83.0766C90.4328 83.0932 90.2169 83.1098 90.001 83.1596C89.5029 83.2426 89.0047 83.4419 88.5896 83.7574C87.8423 84.322 87.4936 85.3349 87.3774 86.2316C87.2611 87.0785 87.3774 88.0084 87.8755 88.7224L87.8589 88.7058Z" fill="#239EA5"/>
<path d="M94.4346 108.433H120.439V77.9954H94.4346V108.433Z" fill="#BCAF90"/>
<path d="M98.0878 87.2113V81.1504H102.106V87.2113H98.0878ZM102.521 80.6854H97.6727V87.6763H102.521V80.6854Z" fill="#FEFEFE"/>
<path d="M97.8387 87.394V80.9843H102.289V87.394H97.8387ZM102.521 80.702H97.6727V87.6929H102.521V80.702Z" fill="#BDBFC1"/>
<path d="M98.0878 87.2113H102.106V81.1669H98.0878V87.2113Z" fill="#22BAC2"/>
<path d="M101.807 86.7297H100.28L100.246 86.6965C99.8812 86.2648 99.8314 85.6338 99.9144 85.1024C99.9974 84.5544 100.23 83.9566 100.711 83.6411C100.961 83.4751 101.276 83.392 101.575 83.3422L101.824 83.3256V86.7297H101.807Z" fill="#82CDD8"/>
<path d="M99.3332 87.2113H98.0878V81.1503H102.106V81.5821C101.89 81.5821 101.675 81.6153 101.459 81.6485C100.944 81.7315 100.462 81.9308 100.047 82.2463C99.3 82.8109 98.9512 83.8238 98.835 84.7205C98.7188 85.5674 98.835 86.4973 99.3332 87.2113Z" fill="#239EA5"/>
<path d="M105.577 87.2113V81.1504H109.595V87.2113H105.577ZM110.01 80.6854H105.162V87.6763H110.01V80.6854Z" fill="#FEFEFE"/>
<path d="M105.328 87.394V80.9843H109.778V87.394H105.328ZM110.01 80.702H105.162V87.6929H110.01V80.702Z" fill="#BDBFC1"/>
<path d="M105.577 87.2113H109.595V81.1669H105.577V87.2113Z" fill="#22BAC2"/>
<path d="M109.296 86.7297H107.769L107.735 86.6965C107.37 86.2648 107.32 85.6338 107.403 85.1024C107.486 84.5544 107.719 83.9566 108.2 83.6411C108.45 83.4751 108.765 83.392 109.064 83.3422L109.313 83.3256V86.7297H109.296Z" fill="#82CDD8"/>
<path d="M106.822 87.2113H105.577V81.1503H109.595V81.5821C109.379 81.5821 109.164 81.6153 108.948 81.6485C108.45 81.7315 107.951 81.9308 107.536 82.2463C106.789 82.8109 106.44 83.8238 106.324 84.7205C106.208 85.5674 106.324 86.4973 106.822 87.2113Z" fill="#239EA5"/>
<path d="M113.066 87.2113V81.1504H117.101V87.2113H113.066ZM117.499 80.6854H112.651V87.6763H117.499V80.6854Z" fill="#FEFEFE"/>
<path d="M112.817 87.394V80.9843H117.267V87.394H112.817ZM117.499 80.702H112.651V87.6929H117.499V80.702Z" fill="#BDBFC1"/>
<path d="M113.066 87.2113H117.084V81.1669H113.066V87.2113Z" fill="#22BAC2"/>
<path d="M116.785 86.7297H115.258L115.225 86.6965C114.859 86.2648 114.809 85.6338 114.892 85.1024C114.975 84.5544 115.208 83.9566 115.689 83.6411C115.939 83.4751 116.254 83.392 116.553 83.3422L116.802 83.3256V86.7297H116.785Z" fill="#82CDD8"/>
<path d="M114.311 87.2113H113.066V81.1503H117.101V81.5821C116.885 81.5821 116.669 81.6153 116.453 81.6485C115.955 81.7315 115.457 81.9308 115.042 82.2463C114.295 82.8109 113.946 83.8238 113.83 84.7205C113.713 85.5674 113.83 86.4973 114.328 87.2113H114.311Z" fill="#239EA5"/>
<path d="M97.7889 95.7963V89.7353H101.824V95.7963H97.7889ZM102.223 89.2704H97.3738V96.2612H102.223V89.2704Z" fill="#FEFEFE"/>
<path d="M97.5398 95.9789V89.5693H101.99V95.9789H97.5398ZM102.223 89.287H97.3738V96.2778H102.223V89.287Z" fill="#BDBFC1"/>
<path d="M97.7889 95.7962H101.807V89.7519H97.7889V95.7962Z" fill="#22BAC2"/>
<path d="M101.509 95.3147H99.9808L99.9476 95.2815C99.5823 94.8497 99.5325 94.2187 99.6155 93.6874C99.6985 93.1394 99.931 92.5582 100.413 92.2261C100.662 92.06 100.977 91.977 101.276 91.9272L101.525 91.9106V95.3147H101.509Z" fill="#82CDD8"/>
<path d="M99.0343 95.7962H97.7889V89.7353H101.824V90.167C101.608 90.1836 101.392 90.2002 101.176 90.2501C100.678 90.3331 100.18 90.5323 99.7649 90.8478C99.0177 91.4124 98.669 92.4254 98.5527 93.322C98.4365 94.1689 98.5527 95.0988 99.0509 95.8128L99.0343 95.7962Z" fill="#239EA5"/>
<path d="M105.278 95.7963V89.7353H109.296V95.7963H105.278ZM109.712 89.2704H104.863V96.2612H109.712V89.2704Z" fill="#FEFEFE"/>
<path d="M105.029 95.9789V89.5693H109.479V95.9789H105.029ZM109.712 89.287H104.863V96.2778H109.712V89.287Z" fill="#BDBFC1"/>
<path d="M105.278 95.7962H109.296V89.7519H105.278V95.7962Z" fill="#22BAC2"/>
<path d="M108.998 95.3147H107.47L107.437 95.2815C107.071 94.8497 107.021 94.2187 107.105 93.6874C107.188 93.1394 107.42 92.5582 107.902 92.2261C108.151 92.06 108.466 91.977 108.765 91.9272L109.014 91.9106V95.3147H108.998Z" fill="#82CDD8"/>
<path d="M106.523 95.7962H105.278V89.7353H109.296V90.167C109.081 90.1836 108.865 90.2002 108.649 90.2501C108.151 90.3331 107.653 90.5323 107.237 90.8478C106.49 91.4124 106.141 92.4254 106.025 93.322C105.909 94.1689 106.025 95.0988 106.523 95.8128V95.7962Z" fill="#239EA5"/>
<path d="M112.767 95.7963V89.7353H116.802V95.7963H112.767ZM117.201 89.2704H112.352V96.2612H117.201V89.2704Z" fill="#FEFEFE"/>
<path d="M112.518 95.9789V89.5693H116.968V95.9789H112.518ZM117.201 89.287H112.352V96.2778H117.201V89.287Z" fill="#BDBFC1"/>
<path d="M112.767 95.7962H116.785V89.7519H112.767V95.7962Z" fill="#22BAC2"/>
<path d="M116.487 95.3147H114.959L114.926 95.2815C114.56 94.8497 114.51 94.2187 114.594 93.6874C114.677 93.1394 114.909 92.5582 115.391 92.2261C115.64 92.06 115.955 91.977 116.254 91.9272L116.503 91.9106V95.3147H116.487Z" fill="#82CDD8"/>
<path d="M114.012 95.7962H112.75V89.7353H116.785V90.167C116.57 90.1836 116.354 90.2002 116.138 90.2501C115.623 90.3331 115.141 90.5323 114.726 90.8478C113.979 91.4124 113.63 92.4254 113.514 93.322C113.398 94.1689 113.514 95.0988 114.012 95.8128V95.7962Z" fill="#239EA5"/>
<path d="M97.7889 105.261V99.2004H101.824V105.261H97.7889ZM102.223 98.7354H97.3738V105.726H102.223V98.7354Z" fill="#FEFEFE"/>
<path d="M97.5398 105.444V99.0343H101.99V105.444H97.5398ZM102.223 98.752H97.3738V105.743H102.223V98.752Z" fill="#BDBFC1"/>
<path d="M97.7889 105.261H101.807V99.217H97.7889V105.261Z" fill="#22BAC2"/>
<path d="M101.509 104.78H99.9808L99.9476 104.747C99.5823 104.315 99.5325 103.684 99.6155 103.152C99.6985 102.604 99.931 102.007 100.413 101.691C100.662 101.525 100.977 101.442 101.276 101.392L101.525 101.376V104.78H101.509Z" fill="#82CDD8"/>
<path d="M99.0343 105.261H97.7889V99.2004H101.824V99.6321C101.608 99.6487 101.392 99.6653 101.176 99.7151C100.678 99.7982 100.18 99.9974 99.7649 100.313C99.0177 100.878 98.669 101.89 98.5527 102.787C98.4365 103.634 98.5527 104.564 99.0509 105.278L99.0343 105.261Z" fill="#239EA5"/>
<path d="M105.278 105.261V99.2004H109.296V105.261H105.278ZM109.712 98.7354H104.863V105.726H109.712V98.7354Z" fill="#FEFEFE"/>
<path d="M105.029 105.444V99.0343H109.479V105.444H105.029ZM109.712 98.752H104.863V105.743H109.712V98.752Z" fill="#BDBFC1"/>
<path d="M105.278 105.261H109.296V99.217H105.278V105.261Z" fill="#22BAC2"/>
<path d="M108.998 104.78H107.47L107.437 104.747C107.071 104.315 107.021 103.684 107.105 103.152C107.188 102.604 107.42 102.007 107.902 101.691C108.151 101.525 108.466 101.442 108.765 101.392L109.014 101.376V104.78H108.998Z" fill="#82CDD8"/>
<path d="M106.523 105.261H105.278V99.2004H109.296V99.6321C109.081 99.6487 108.865 99.6653 108.649 99.7151C108.151 99.7982 107.653 99.9974 107.237 100.313C106.49 100.878 106.141 101.89 106.025 102.787C105.909 103.634 106.025 104.564 106.523 105.278V105.261Z" fill="#239EA5"/>
<path d="M112.767 105.261V99.2004H116.802V105.261H112.767ZM117.201 98.7354H112.352V105.726H117.201V98.7354Z" fill="#FEFEFE"/>
<path d="M112.518 105.444V99.0343H116.968V105.444H112.518ZM117.201 98.752H112.352V105.743H117.201V98.752Z" fill="#BDBFC1"/>
<path d="M112.767 105.261H116.785V99.217H112.767V105.261Z" fill="#22BAC2"/>
<path d="M116.487 104.78H114.959L114.926 104.747C114.56 104.315 114.51 103.684 114.594 103.152C114.677 102.604 114.909 102.007 115.391 101.691C115.64 101.525 115.955 101.442 116.254 101.392L116.503 101.376V104.78H116.487Z" fill="#82CDD8"/>
<path d="M114.012 105.261H112.75V99.2004H116.785V99.6321C116.57 99.6487 116.354 99.6653 116.138 99.7151C115.623 99.7982 115.141 99.9974 114.726 100.313C113.979 100.878 113.63 101.89 113.514 102.787C113.398 103.634 113.514 104.564 114.012 105.278V105.261Z" fill="#239EA5"/>
<path d="M53.5854 112.418H85.9659V90.798H53.5854V112.418Z" fill="#F4CA9A"/>
<path d="M62.0044 111.422H69.0285V98.4033H62.0044V111.422Z" fill="#FEFEFE"/>
<path d="M64.1963 111.422H62.0044V98.4199H69.0285V99.3498C68.6465 99.3664 68.2646 99.4328 67.8993 99.5159C67.0192 99.6985 66.1557 100.13 65.4417 100.794C64.1299 102.007 63.5321 104.165 63.3328 106.092C63.1336 107.902 63.3162 109.911 64.1963 111.439V111.422Z" fill="#D2D3D5"/>
<path d="M68.5469 104.946C68.5469 105.295 68.2646 105.577 67.8993 105.577C67.5505 105.577 67.2682 105.295 67.2682 104.946C67.2682 104.597 67.5505 104.298 67.8993 104.298C68.248 104.298 68.5469 104.581 68.5469 104.946Z" fill="#FBB24A"/>
<path d="M62.0044 111.422V98.4199H69.0284V111.422H62.0044ZM69.7425 97.4236H61.2737V112.435H69.7425V97.4236Z" fill="#C6C7C9"/>
<path d="M69.7591 112.418H61.2903V97.407H69.7591V112.418ZM61.5892 98.038V111.787H69.3439V98.038H61.5892Z" fill="#ABADB0"/>
<path d="M70.5063 111.422H77.5304V98.4033H70.5063V111.422Z" fill="#FEFEFE"/>
<path d="M77.5304 111.422H75.3551C76.2186 109.894 76.4179 107.885 76.2186 106.075C76.0027 104.149 75.4049 101.99 74.0931 100.778C73.3791 100.114 72.5156 99.6985 71.6355 99.4993C71.2702 99.4162 70.8883 99.3498 70.5063 99.3332V98.4033H77.5304V111.405V111.422Z" fill="#D2D3D5"/>
<path d="M71.0045 104.946C71.0045 105.295 71.2868 105.577 71.6521 105.577C72.0008 105.577 72.2831 105.295 72.2831 104.946C72.2831 104.597 72.0008 104.298 71.6521 104.298C71.3034 104.298 71.0045 104.581 71.0045 104.946Z" fill="#FBB24A"/>
<path d="M70.5063 111.422V98.4199H77.5304V111.422H70.5063ZM69.7923 112.418H78.261V97.407H69.7923V112.418Z" fill="#C6C7C9"/>
<path d="M78.261 112.418H69.7923V97.407H78.261V112.418ZM70.224 98.038V111.787H77.9787V98.038H70.224Z" fill="#ABADB0"/>
<path d="M51.1445 94.4678H88.4069V90.798H51.1445V94.4678Z" fill="#BCAF90"/>
<path d="M42.9248 70.7554H96.6265V67.0856H42.9248V70.7554Z" fill="#BCAF90"/>
<path d="M96.6265 70.7554H96.4272V68.9122H96.6265V70.7554ZM92.9899 70.7554H42.9248V68.9122H92.9899V70.7554Z" fill="#938A73"/>
<path d="M52.7552 62.0874V56.0265H56.7903V62.0874H52.7552ZM57.1888 55.5615H52.3401V62.5524H57.1888V55.5615Z" fill="#FEFEFE"/>
<path d="M52.5061 62.2535V55.8438H56.9564V62.2535H52.5061ZM57.1888 55.5615H52.3401V62.5524H57.1888V55.5615Z" fill="#BDBFC1"/>
<path d="M52.7552 62.0874H56.7903V56.0264H52.7552V62.0874Z" fill="#22BAC2"/>
<path d="M56.4913 61.6058H54.9637L54.9304 61.5726C54.5651 61.1409 54.5153 60.5099 54.5983 59.9785C54.6814 59.4305 54.9138 58.8327 55.3954 58.5172C55.6445 58.3512 55.96 58.2681 56.2589 58.2183L56.508 58.2017V61.6058H56.4913Z" fill="#82CDD8"/>
<path d="M54.0173 62.0874H52.7552V56.0264H56.7903V56.4582C56.5745 56.4748 56.3586 56.4914 56.1427 56.5412C55.6446 56.6242 55.1464 56.8235 54.7313 57.139C53.984 57.7036 53.6353 58.7165 53.5191 59.6132C53.4029 60.4601 53.5191 61.39 54.0173 62.104V62.0874Z" fill="#239EA5"/>
<path d="M45.9304 51.0282H93.5712V47.3585H45.9304V51.0282Z" fill="#BCAF90"/>
<path d="M93.5712 51.0283H45.9304V49.1851H93.5712V51.0283Z" fill="#938A73"/>
<path d="M94.4346 78.1282H123.311V74.4584H94.4346V78.1282Z" fill="#9F947B"/>
<path d="M123.311 78.1282H94.4346V76.285H123.311V78.1282Z" fill="#807864"/>
<path d="M19.0962 108.566H45.1168V78.1282H19.0962V108.566Z" fill="#BCAF90"/>
<path d="M37.4284 87.3441V81.2832H41.4635V87.3441H37.4284ZM37.0133 87.8091H41.8621V80.8182H37.0133V87.8091Z" fill="#FEFEFE"/>
<path d="M37.2624 87.5102V81.1005H41.7126V87.5102H37.2624ZM37.0133 87.8091H41.8621V80.8182H37.0133V87.8091Z" fill="#BDBFC1"/>
<path d="M37.4285 87.3442H41.4636V81.2832H37.4285V87.3442Z" fill="#22BAC2"/>
<path d="M39.255 86.8626H37.7273V83.4585L37.9764 83.4751C38.2753 83.5083 38.5742 83.6079 38.8399 83.774C39.3214 84.0895 39.5539 84.6873 39.6369 85.2353C39.7199 85.7666 39.6701 86.3976 39.3048 86.8294L39.2716 86.8626H39.255Z" fill="#82CDD8"/>
<path d="M41.4636 87.3442H40.2182C40.7163 86.6301 40.8326 85.7002 40.7163 84.8533C40.6001 83.9567 40.2514 82.9437 39.5041 82.3792C39.089 82.0637 38.6074 81.8644 38.0927 81.7814C37.8768 81.7482 37.6609 81.7149 37.4451 81.7149V81.2832H41.4802V87.3442H41.4636Z" fill="#239EA5"/>
<path d="M29.9394 87.3441V81.2832H33.9745V87.3441H29.9394ZM29.5243 87.8091H34.3731V80.8182H29.5243V87.8091Z" fill="#FEFEFE"/>
<path d="M29.7734 87.5102V81.1005H34.2236V87.5102H29.7734ZM29.5243 87.8091H34.3731V80.8182H29.5243V87.8091Z" fill="#BDBFC1"/>
<path d="M29.9395 87.3442H33.9746V81.2832H29.9395V87.3442Z" fill="#22BAC2"/>
<path d="M31.766 86.8626H30.2383V83.4585L30.4874 83.4751C30.7863 83.5083 31.0852 83.6079 31.3508 83.774C31.8324 84.0895 32.0483 84.6873 32.1479 85.2353C32.2309 85.7666 32.1811 86.3976 31.8158 86.8294L31.7826 86.8626H31.766Z" fill="#82CDD8"/>
<path d="M33.9746 87.3442H32.7125C33.2107 86.6301 33.3269 85.7002 33.2107 84.8533C33.0945 83.9567 32.7458 82.9437 31.9985 82.3792C31.5834 82.0637 31.1018 81.8644 30.5871 81.7814C30.3712 81.7482 30.1553 81.7149 29.9395 81.7149V81.2832H33.9746V87.3442Z" fill="#239EA5"/>
<path d="M22.4504 87.3441V81.2832H26.4855V87.3441H22.4504ZM22.0353 87.8091H26.884V80.8182H22.0353V87.8091Z" fill="#FEFEFE"/>
<path d="M22.2844 87.5102V81.1005H26.7346V87.5102H22.2844ZM22.0353 87.8091H26.884V80.8182H22.0353V87.8091Z" fill="#BDBFC1"/>
<path d="M22.4504 87.3442H26.4855V81.2832H22.4504V87.3442Z" fill="#22BAC2"/>
<path d="M24.277 86.8626H22.7493V83.4585L22.9983 83.4751C23.2972 83.5083 23.6127 83.6079 23.8618 83.774C24.3434 84.0895 24.5759 84.6873 24.6589 85.2353C24.7419 85.7666 24.6921 86.3976 24.3268 86.8294L24.2936 86.8626H24.277Z" fill="#82CDD8"/>
<path d="M26.4855 87.3442H25.2235C25.7217 86.6301 25.8379 85.7002 25.7217 84.8533C25.6055 83.9567 25.2567 82.9437 24.5095 82.3792C24.0944 82.0637 23.6128 81.8644 23.098 81.7814C22.8822 81.7482 22.6663 81.7149 22.4504 81.7149V81.2832H26.4855V87.3442Z" fill="#239EA5"/>
<path d="M37.7274 95.9291V89.8681H41.7625V95.9291H37.7274ZM37.3123 96.394H42.161V89.4032H37.3123V96.394Z" fill="#FEFEFE"/>
<path d="M37.5613 96.1118V89.7021H42.0116V96.1118H37.5613ZM37.3123 96.4107H42.161V89.4198H37.3123V96.4107Z" fill="#BDBFC1"/>
<path d="M37.7273 95.9291H41.7624V89.8848H37.7273V95.9291Z" fill="#22BAC2"/>
<path d="M39.5539 95.4476H38.0262V92.0435L38.2753 92.0601C38.5742 92.0933 38.8731 92.1929 39.1388 92.359C39.6204 92.6745 39.8528 93.2723 39.9359 93.8202C40.0189 94.3516 39.9691 94.9826 39.6038 95.4143L39.5705 95.4476H39.5539Z" fill="#82CDD8"/>
<path d="M41.7624 95.9291H40.5004C40.9985 95.2151 41.1148 94.2852 40.9986 93.4383C40.8823 92.5416 40.5336 91.5287 39.7864 90.9641C39.3712 90.6486 38.8897 90.466 38.3749 90.3663C38.159 90.3331 37.9432 90.2999 37.7273 90.2833V89.8516H41.7624V95.9125V95.9291Z" fill="#239EA5"/>
<path d="M30.2384 95.9291V89.8681H34.2735V95.9291H30.2384ZM29.8232 96.394H34.672V89.4032H29.8232V96.394Z" fill="#FEFEFE"/>
<path d="M30.0723 96.1118V89.7021H34.5226V96.1118H30.0723ZM29.8232 96.4107H34.672V89.4198H29.8232V96.4107Z" fill="#BDBFC1"/>
<path d="M30.2383 95.9291H34.2734V89.8848H30.2383V95.9291Z" fill="#22BAC2"/>
<path d="M32.0649 95.4476H30.5372V92.0435L30.7863 92.0601C31.0852 92.0933 31.4007 92.1929 31.6498 92.359C32.1313 92.6745 32.3638 93.2723 32.4468 93.8202C32.5299 94.3516 32.4801 94.9826 32.1147 95.4143L32.0815 95.4476H32.0649Z" fill="#82CDD8"/>
<path d="M34.2735 95.9291H33.0281C33.5263 95.2151 33.6425 94.2852 33.5263 93.4383C33.41 92.5416 33.0613 91.5287 32.3141 90.9641C31.8989 90.6486 31.4174 90.466 30.9026 90.3663C30.6867 90.3331 30.4709 90.2999 30.255 90.2833V89.8516H34.2901V95.9125L34.2735 95.9291Z" fill="#239EA5"/>
<path d="M22.7494 95.9291V89.8681H26.7845V95.9291H22.7494ZM22.3342 96.394H27.183V89.4032H22.3342V96.394Z" fill="#FEFEFE"/>
<path d="M22.5833 96.1118V89.7021H27.0335V96.1118H22.5833ZM22.3342 96.4107H27.183V89.4198H22.3342V96.4107Z" fill="#BDBFC1"/>
<path d="M22.7493 95.9291H26.7844V89.8848H22.7493V95.9291Z" fill="#22BAC2"/>
<path d="M24.5925 95.4476H23.0648V92.0435L23.3139 92.0601C23.6128 92.0933 23.9117 92.1929 24.1774 92.359C24.6589 92.6745 24.8914 93.2723 24.9744 93.8202C25.0575 94.3516 25.0076 94.9826 24.6423 95.4143L24.6091 95.4476H24.5925Z" fill="#82CDD8"/>
<path d="M26.7845 95.9291H25.5391C26.0372 95.2151 26.1535 94.2852 26.0372 93.4383C25.921 92.5416 25.5723 91.5287 24.8251 90.9641C24.4099 90.6486 23.9284 90.466 23.4136 90.3663C23.1977 90.3331 22.9819 90.2999 22.766 90.2833V89.8516H26.8011V95.9125L26.7845 95.9291Z" fill="#239EA5"/>
<path d="M37.7274 105.394V99.3332H41.7625V105.394H37.7274ZM37.3123 105.859H42.161V98.8683H37.3123V105.859Z" fill="#FEFEFE"/>
<path d="M37.5613 105.577V99.1672H42.0116V105.577H37.5613ZM37.3123 105.876H42.161V98.8849H37.3123V105.876Z" fill="#BDBFC1"/>
<path d="M37.7273 105.394H41.7624V99.3498H37.7273V105.394Z" fill="#22BAC2"/>
<path d="M39.5539 104.913H38.0262V101.508L38.2753 101.525C38.5742 101.558 38.8731 101.658 39.1388 101.824C39.6204 102.139 39.8528 102.737 39.9359 103.285C40.0189 103.817 39.9691 104.448 39.6038 104.879L39.5705 104.913H39.5539Z" fill="#82CDD8"/>
<path d="M41.7624 105.394H40.5004C40.9985 104.68 41.1148 103.75 40.9986 102.903C40.8823 102.007 40.5336 100.994 39.7864 100.429C39.3712 100.114 38.8897 99.931 38.3749 99.8314C38.159 99.7981 37.9432 99.7649 37.7273 99.7649V99.3332H41.7624V105.394Z" fill="#239EA5"/>
<path d="M30.2384 105.394V99.3332H34.2735V105.394H30.2384ZM29.8232 105.859H34.672V98.8683H29.8232V105.859Z" fill="#FEFEFE"/>
<path d="M30.0723 105.577V99.1672H34.5226V105.577H30.0723ZM29.8232 105.876H34.672V98.8849H29.8232V105.876Z" fill="#BDBFC1"/>
<path d="M30.2383 105.394H34.2734V99.3498H30.2383V105.394Z" fill="#22BAC2"/>
<path d="M32.0649 104.913H30.5372V101.508L30.7863 101.525C31.0852 101.558 31.4007 101.658 31.6498 101.824C32.1313 102.139 32.3638 102.737 32.4468 103.285C32.5299 103.817 32.4801 104.448 32.1147 104.879L32.0815 104.913H32.0649Z" fill="#82CDD8"/>
<path d="M34.2735 105.394H33.0281C33.5263 104.68 33.6425 103.75 33.5263 102.903C33.41 102.007 33.0613 100.994 32.3141 100.429C31.8989 100.114 31.4174 99.931 30.9026 99.8314C30.6867 99.7981 30.4709 99.7649 30.255 99.7649V99.3332H34.2901V105.394H34.2735Z" fill="#239EA5"/>
<path d="M22.7494 105.394V99.3332H26.7845V105.394H22.7494ZM22.3342 105.859H27.183V98.8683H22.3342V105.859Z" fill="#FEFEFE"/>
<path d="M22.5833 105.577V99.1672H27.0335V105.577H22.5833ZM22.3342 105.876H27.183V98.8849H22.3342V105.876Z" fill="#BDBFC1"/>
<path d="M22.7493 105.394H26.7844V99.3498H22.7493V105.394Z" fill="#22BAC2"/>
<path d="M24.5925 104.913H23.0648V101.508L23.3139 101.525C23.6128 101.558 23.9117 101.658 24.1774 101.824C24.6589 102.139 24.8914 102.737 24.9744 103.285C25.0575 103.817 25.0076 104.448 24.6423 104.879L24.6091 104.913H24.5925Z" fill="#82CDD8"/>
<path d="M26.7845 105.394H25.5391C26.0372 104.68 26.1535 103.75 26.0372 102.903C25.921 102.007 25.5723 100.994 24.8251 100.429C24.4099 100.114 23.9284 99.931 23.4136 99.8314C23.1977 99.7981 22.9819 99.7649 22.766 99.7649V99.3332H26.8011V105.394H26.7845Z" fill="#239EA5"/>
<path d="M16.2234 78.261H45.1167V74.5912H16.2234V78.261Z" fill="#9F947B"/>
<path d="M45.1167 78.261H16.2234V76.4178H45.1167V78.261Z" fill="#807864"/>
<path d="M53.4858 47.3584H86.0323V39.6702H53.4858V47.3584Z" fill="#6BC0C0"/>
<path d="M60.1114 42.3769V45.1998L59.9121 45.4157L59.6962 45.1998V43.971H57.7202V45.1998L57.5209 45.4157L57.3051 45.1998V42.3769L57.5209 42.1776L57.7202 42.3769V43.5559H59.6962V42.3769L59.9121 42.1776L60.1114 42.3769Z" fill="#FEFEFE"/>
<path d="M61.091 44.7182C61.091 44.8677 61.2239 45.0005 61.3733 45.0005H63.1999C63.3494 45.0005 63.4822 44.8677 63.4822 44.7182V42.875C63.4822 42.7256 63.3494 42.5927 63.1999 42.5927H61.3733C61.2239 42.5927 61.091 42.7256 61.091 42.875V44.7182ZM63.1833 42.1776C63.5652 42.1776 63.8807 42.4931 63.8807 42.875V44.7182C63.8807 45.1002 63.5652 45.4157 63.1833 45.4157H61.3567C60.9748 45.4157 60.6593 45.1002 60.6593 44.7182V42.875C60.6593 42.4931 60.9748 42.1776 61.3567 42.1776H63.1833Z" fill="#FEFEFE"/>
<path d="M67.0358 42.1776L67.2517 42.3935L67.0358 42.6094H65.1096C64.9435 42.6094 64.8273 42.7256 64.8273 42.8916V43.3234C64.8273 43.4728 64.9601 43.6057 65.1096 43.6057H66.5543C66.9362 43.6057 67.2517 43.9212 67.2517 44.3031V44.7348C67.2517 45.1168 66.9362 45.4323 66.5543 45.4323H64.6114L64.4122 45.2164L64.6114 45.0171H66.5543C66.7037 45.0171 66.8365 44.8843 66.8365 44.7348V44.3031C66.8365 44.1537 66.7037 44.0208 66.5543 44.0208H65.1096C64.7277 44.0208 64.4122 43.7053 64.4122 43.3234V42.8916C64.4122 42.5097 64.7277 42.1942 65.1096 42.1942H67.0358V42.1776Z" fill="#FEFEFE"/>
<path d="M68.2314 44.1869H70.1078C70.2572 44.1869 70.3901 44.054 70.3901 43.9046V42.8584C70.3901 42.709 70.2572 42.5761 70.1078 42.5761H68.5136C68.3642 42.5761 68.2314 42.709 68.2314 42.8584V44.1703V44.1869ZM70.1078 42.1776C70.4897 42.1776 70.8052 42.4931 70.8052 42.875V43.9212C70.8052 44.3031 70.4897 44.6186 70.1078 44.6186H68.2314V45.2164L68.0155 45.4323L67.7996 45.2164V42.8916C67.7996 42.5097 68.1151 42.1942 68.497 42.1942H70.0912L70.1078 42.1776Z" fill="#FEFEFE"/>
<path d="M71.2369 42.3935L71.4528 42.1776L71.6521 42.3935V45.1998L71.4528 45.4157L71.2369 45.1998V42.3935Z" fill="#FEFEFE"/>
<path d="M74.9732 42.1776C75.0894 42.1776 75.1891 42.2772 75.1891 42.3935C75.1891 42.5097 75.106 42.6094 74.9732 42.6094H73.8606V45.2164L73.6614 45.4323L73.4455 45.2164V42.6094H72.3329L72.1337 42.3935L72.3329 42.1776H74.9732Z" fill="#FEFEFE"/>
<path d="M76.0359 43.5559H78.095V42.875C78.095 42.7256 77.9621 42.5927 77.8127 42.5927H76.3016C76.1522 42.5927 76.0193 42.709 76.0193 42.875V43.5559H76.0359ZM77.8293 42.1776C78.2112 42.1776 78.5267 42.4931 78.5267 42.875V45.1998L78.3109 45.4157L78.095 45.1998V43.971H76.0359V45.1998L75.8201 45.4157L75.6208 45.1998V42.875C75.6208 42.4931 75.9363 42.1776 76.3182 42.1776H77.8293Z" fill="#FEFEFE"/>
<path d="M79.0747 42.3935L79.274 42.1776L79.4898 42.3935V44.7182C79.4898 44.8677 79.6227 45.0005 79.7721 45.0005H81.6651L81.881 45.1998L81.6651 45.4157H79.7721C79.3902 45.4157 79.0747 45.1002 79.0747 44.7182V42.3935Z" fill="#FEFEFE"/>
</svg>
