<svg width="100" height="100" viewBox="0 0 100 100" fill="none" xmlns="http://www.w3.org/2000/svg">
<g clip-path="url(#clip0_463_1003)">
<path fill-rule="evenodd" clip-rule="evenodd" d="M76.2643 16.8396C77.3752 16.8813 78.4828 16.693 79.5175 16.2868C80.5523 15.8805 81.4923 15.2652 82.2786 14.4791C83.0648 13.693 83.6802 12.753 84.0862 11.7182C84.4925 10.6834 84.6805 9.57572 84.6391 8.46482C84.6927 7.34696 84.5132 6.23018 84.1125 5.18518C83.7118 4.14018 83.0982 3.19 82.3107 2.39464C81.5232 1.59929 80.5793 0.97625 79.5382 0.565C78.4975 0.15375 77.3823 -0.0367854 76.2641 0.00553605C75.1387 -0.0489282 74.0145 0.132679 72.9636 0.538572C71.9125 0.944465 70.9582 1.56571 70.1612 2.36232C69.3646 3.15893 68.7434 4.11339 68.3375 5.16446C67.9318 6.21536 67.75 7.33964 67.8046 8.465C67.7623 9.58339 67.9527 10.6984 68.3641 11.7393C68.7753 12.7802 69.3984 13.7243 70.1937 14.5116C70.9891 15.2989 71.9395 15.9125 72.9843 16.3134C74.0291 16.7141 75.1462 16.8932 76.2643 16.8396ZM76.2643 3.22839C79.0727 3.22839 80.9002 5.28411 80.9002 8.43946C80.9002 11.5948 79.0559 13.6505 76.2643 13.6505C73.4727 13.6505 71.6116 11.5948 71.6116 8.46482C71.6116 5.33482 73.4387 3.22839 76.2643 3.22839ZM42.6887 13.4896H49.6002L50.8859 16.4927H54.7943L47.4261 0.360715H44.9645L37.5539 16.4929H41.4114L42.6887 13.4896ZM48.4328 10.7064L46.1782 5.40393L43.9239 10.7064H48.4328ZM26.3282 14.0902L22.2423 7.74554V16.4927H18.537V0.352143H21.1425L27.2755 9.92822L33.4171 0.352143H36.0227V16.4927H32.3173V7.74554L28.2314 14.0902H26.3282ZM58.1103 16.4927H61.8662V10.7571L68.0841 0.352143H63.9982L60.0137 7.39893L56.0294 0.352143H51.8928L58.1105 10.7573L58.1103 16.4927ZM28.443 39.2146V23.0741H32.2075V36.1016H40.4218V39.2146H28.443ZM46.9693 23.0741H43.2134V39.2062H46.9693V23.0741ZM23.0461 33.7754L26.3537 35.0782C25.0932 37.9121 22.2425 39.5616 18.7571 39.587C13.2839 39.587 9.55321 35.3573 10.3993 29.6134C10.7302 27.9264 11.5618 26.3786 12.7857 25.1713C14.0095 23.9641 15.5687 23.1538 17.26 22.8459C21.3882 22.2877 24.8905 24.0387 26.2777 27.3123L22.97 28.6152C22.6275 27.7868 22.0371 27.0843 21.28 26.6043C20.5228 26.1241 19.6359 25.89 18.7403 25.9336C15.898 25.9336 14.0539 28.0146 14.0539 31.17C14.0539 34.3254 15.8811 36.3809 18.7403 36.3809C19.6348 36.4182 20.5203 36.1909 21.2862 35.7277C22.0521 35.2641 22.6641 34.5848 23.0461 33.7754ZM72.7282 23.0741H68.9723V39.2062H72.7282V23.0741ZM86.2266 35.6811C86.9866 35.2305 87.5991 34.5682 87.9891 33.7754L91.2968 35.1034C90.0195 37.9373 87.1686 39.587 83.6834 39.587C78.2102 39.587 74.4795 35.3573 75.3253 29.6134C75.6564 27.9264 76.488 26.3786 77.7118 25.1713C78.9357 23.9641 80.4948 23.1538 82.1859 22.8459C86.3395 22.2873 89.8418 24.0387 91.1952 27.27L87.8875 28.5729C87.5448 27.7445 86.9546 27.042 86.1975 26.562C85.4403 26.0818 84.5532 25.8477 83.6577 25.8913C80.8493 25.8913 79.0218 27.947 79.0218 31.1021C79.0218 34.2573 80.8491 36.313 83.7084 36.313C84.5912 36.3514 85.4664 36.1316 86.2266 35.6811ZM53.0855 23.0741H50.5814V39.2146H54.2868V29.3679L62.8562 39.2146H65.3603V23.0741H61.655V32.9209L53.0855 23.0741ZM55.8518 60.7779V50.4487H83.7764V66.2088C83.7764 75.6918 79.1912 81.7741 69.793 84.7434C68.6591 84.3905 67.5489 83.9666 66.4684 83.4743V83.7788C65.0811 91.8661 60.0393 97.2209 51.1737 99.9955C42.3166 97.2207 37.2666 91.8661 35.8791 83.7788C35.8791 83.7788 35.8368 83.6687 35.8368 83.4743C34.7562 83.9666 33.6457 84.3905 32.5121 84.7434C23.1136 81.7741 18.5287 75.6832 18.5287 66.2088V50.4405H46.4955V60.7779H55.8518ZM32.4848 81.4163C24.8914 78.3711 21.8362 73.863 21.8362 65.5912V55.3805C21.8362 54.952 22.0066 54.5411 22.3095 54.2382C22.6125 53.9352 23.0236 53.765 23.4521 53.765H41.5807C42.0093 53.765 42.4202 53.9352 42.7234 54.2382C43.0262 54.5411 43.1966 54.9521 43.1966 55.3805V60.7777H35.49V80.0061C34.5189 80.5389 33.5152 81.0102 32.4848 81.4163ZM43.188 65.5996V64.0939H40.4302C40.0016 64.0939 39.5907 64.2641 39.2878 64.5671C38.9848 64.87 38.8146 65.2811 38.8146 65.7095V77.6882C41.8768 74.8543 43.188 71.0391 43.188 65.5996ZM51.1737 96.6882C58.728 93.6852 62.4671 89.3707 63.313 82.1634C63.313 82.1634 63.3298 82.0025 63.3639 81.7152C58.3303 78.3059 55.852 73.1795 55.852 66.2175V64.1025H46.5043V66.2175C46.5043 73.1795 44.0678 78.3314 38.9923 81.7152C39.0428 82.0027 39.0428 82.1634 39.0428 82.1634C39.8887 89.3709 43.6195 93.6852 51.1737 96.6882ZM59.2018 65.5996C59.2018 71.0391 60.5128 74.8545 63.5753 77.6882V65.7095C63.5753 65.4973 63.5336 65.2871 63.4525 65.0913C63.3712 64.8952 63.2521 64.7171 63.1021 64.5671C62.9521 64.417 62.7741 64.298 62.578 64.2168C62.382 64.1355 62.1718 64.0939 61.9598 64.0939H59.202L59.2018 65.5996ZM69.8182 81.4359C77.4487 78.3904 80.4941 73.8816 80.4941 65.5996V55.3977C80.4941 54.972 80.3262 54.5636 80.0268 54.2611C79.7275 53.9584 79.3209 53.7863 78.8952 53.7818H60.7836C60.355 53.7818 59.9441 53.952 59.6409 54.255C59.338 54.558 59.1678 54.9689 59.1678 55.3977V60.7946H66.8068V80.023C67.7798 80.557 68.7855 81.0288 69.8182 81.4359Z" fill="black"/>
</g>
<defs>
<clipPath id="clip0_463_1003">
<rect width="100" height="100" fill="white"/>
</clipPath>
</defs>
</svg>
